<svg width="209" height="314" viewBox="0 0 209 314" fill="none" xmlns="http://www.w3.org/2000/svg">
<g clip-path="url(#clip0_239_4)">
<path fill-rule="evenodd" clip-rule="evenodd" d="M34.58 139.21L34.51 139.27C34.51 139.27 34.56 139.21 34.58 139.21Z" fill="url(#paint0_linear_239_4)"/>
<path fill-rule="evenodd" clip-rule="evenodd" d="M34.67 139.11C34.711 139.08 34.7545 139.053 34.8 139.03C34.8 139.03 34.8 138.96 34.85 138.93L34.67 139.11ZM34.67 139.11C34.711 139.08 34.7545 139.053 34.8 139.03C34.8 139.03 34.8 138.96 34.85 138.93L34.67 139.11ZM34.67 139.11C34.711 139.08 34.7545 139.053 34.8 139.03C34.8 139.03 34.8 138.96 34.85 138.93L34.67 139.11ZM34.67 139.11C34.711 139.08 34.7545 139.053 34.8 139.03C34.8 139.03 34.8 138.96 34.85 138.93L34.67 139.11ZM34.67 139.11C34.711 139.08 34.7545 139.053 34.8 139.03C34.8 139.03 34.8 138.96 34.85 138.93L34.67 139.11ZM107.91 102.38C79.165 123.76 59.012 154.713 51.09 189.65C70.979 191.771 89.9846 198.987 106.27 210.6C119.751 192.607 138.161 178.91 159.27 171.17C149.213 143.728 131.363 119.82 107.91 102.38ZM34.67 139.11C34.711 139.08 34.7545 139.053 34.8 139.03C34.8 139.03 34.8 138.96 34.85 138.93L34.67 139.11ZM34.67 139.11C34.711 139.08 34.7545 139.053 34.8 139.03C34.8 139.03 34.8 138.96 34.85 138.93L34.67 139.11ZM34.67 139.11C34.711 139.08 34.7545 139.053 34.8 139.03C34.8 139.03 34.8 138.96 34.85 138.93L34.67 139.11ZM34.67 139.11C34.711 139.08 34.7545 139.053 34.8 139.03C34.8 139.03 34.8 138.96 34.85 138.93L34.67 139.11ZM34.67 139.11C34.711 139.08 34.7545 139.053 34.8 139.03C34.8 139.03 34.8 138.96 34.85 138.93L34.67 139.11ZM34.67 139.11C34.711 139.08 34.7545 139.053 34.8 139.03C34.8 139.03 34.8 138.96 34.85 138.93L34.67 139.11ZM34.67 139.11C34.711 139.08 34.7545 139.053 34.8 139.03C34.8 139.03 34.8 138.96 34.85 138.93L34.67 139.11ZM187.76 130.64L105.25 0L22.74 130.64C13.7499 146.635 7.01927 163.798 2.74 181.64C1.61333 186.4 0.7 191.02 0 195.5C12.398 191.173 25.4387 188.976 38.57 189C38.97 189 39.38 189 39.78 189C48.302 149.295 71.4845 114.264 104.7 90.9L107.91 88.64L111.13 90.9C138.174 109.908 158.725 136.766 170 167.84C179.472 165.391 189.217 164.158 199 164.17C200.26 164.17 201.53 164.17 202.81 164.24C198.819 152.608 193.782 141.362 187.76 130.64ZM77.15 76.34C73.06 83.69 68.87 90.71 64.59 97.55C60.31 104.39 55.93 111 51.07 117.87C48.62 121.34 46.07 124.87 43.32 128.5C41.91 130.36 40.47 132.23 38.96 134.14C38.21 135.14 37.41 136.14 36.62 137.08L35.41 138.59L35.14 138.92V138.97C35.0907 139.067 35.0303 139.157 34.96 139.24C34.96 139.24 34.96 139.24 34.88 139.33C34.7339 139.493 34.5572 139.625 34.36 139.72C34.28 139.72 34.26 139.65 34.28 139.64V139.49V139.24L34.5 138.24C34.71 137.55 34.92 136.85 35.19 136.09C35.69 134.61 36.33 133.04 37 131.41C38.39 128.09 40.1 124.52 42 120.83C45.9 113.18 50.6 105.09 55.81 96.83C61.02 88.57 66.7 80.1 72.63 72.06C75.55 68.13 78.49 64.29 81.45 60.69C84.1513 57.337 87.0427 54.1418 90.11 51.12C85.68 60.6 81.4 68.68 77.15 76.34ZM34.8 139C34.8 139 34.8 138.93 34.85 138.9L34.67 139.09C34.7106 139.056 34.7541 139.026 34.8 139ZM203.65 183C203.06 180.48 202.4 178 201.65 175.44H198.88C190.283 175.433 181.717 176.491 173.38 178.59C171.58 179.04 169.8 179.53 168.04 180.08C166.28 180.63 164.45 181.24 162.69 181.9C143.689 188.947 127.133 201.342 115.02 217.59C131.303 231.636 143.41 249.887 150.02 270.35C150.65 272.26 151.21 274.19 151.72 276.14C152.23 278.09 152.72 280.14 153.15 282.14C154.517 288.675 155.317 295.317 155.54 301.99C168.848 296.232 180.547 287.31 189.62 276C207.77 253.06 212.63 220.88 203.65 183ZM34.65 139.16C34.691 139.13 34.7345 139.103 34.78 139.08C34.78 139.08 34.78 139.01 34.83 138.98L34.65 139.16ZM143.06 289C142.74 287 142.36 285.03 141.92 283.09C141.48 281.15 141 279.237 140.48 277.35C134.957 257.863 123.967 240.366 108.81 226.93C107.39 225.657 105.933 224.43 104.44 223.25C102.99 222.09 101.5 220.97 99.99 219.89C84.9711 209.127 67.3798 202.515 48.99 200.72C47.13 200.53 45.26 200.39 43.38 200.32C41.78 200.24 40.17 200.2 38.55 200.2H37.77C26.8726 200.26 16.0505 202.011 5.69 205.39C2.75 235.74 9.69 260.67 26.45 279.53C40.95 295.88 62.45 306.67 87.14 310.36C89.14 310.667 91.14 310.92 93.14 311.12C95.14 311.33 97.14 311.49 99.14 311.59C99.3332 311.6 99.5268 311.6 99.72 311.59C100.12 311.59 100.52 311.59 100.93 311.65L103.18 311.73L105.18 313.1L107.08 311.77C107.94 311.77 108.8 311.77 109.66 311.77H110.38L111.88 311.72C112.59 311.72 113.3 311.66 114 311.62C114.7 311.58 115.67 311.5 116.5 311.44H116.89C126.247 310.722 135.492 308.947 144.45 306.15C144.454 300.405 143.989 294.669 143.06 289ZM34.67 139.11C34.711 139.08 34.7545 139.053 34.8 139.03C34.8 139.03 34.8 138.96 34.85 138.93L34.67 139.11ZM34.67 139.11C34.711 139.08 34.7545 139.053 34.8 139.03C34.8 139.03 34.8 138.96 34.85 138.93L34.67 139.11ZM34.67 139.11C34.711 139.08 34.7545 139.053 34.8 139.03C34.8 139.03 34.8 138.96 34.85 138.93L34.67 139.11ZM34.67 139.11C34.711 139.08 34.7545 139.053 34.8 139.03C34.8 139.03 34.8 138.96 34.85 138.93L34.67 139.11ZM34.67 139.11C34.711 139.08 34.7545 139.053 34.8 139.03C34.8 139.03 34.8 138.96 34.85 138.93L34.67 139.11ZM34.67 139.11C34.711 139.08 34.7545 139.053 34.8 139.03C34.8 139.03 34.8 138.96 34.85 138.93L34.67 139.11ZM34.67 139.11C34.711 139.08 34.7545 139.053 34.8 139.03C34.8 139.03 34.8 138.96 34.85 138.93L34.67 139.11ZM34.67 139.11C34.711 139.08 34.7545 139.053 34.8 139.03C34.8 139.03 34.8 138.96 34.85 138.93L34.67 139.11ZM34.67 139.11C34.711 139.08 34.7545 139.053 34.8 139.03C34.8 139.03 34.8 138.96 34.85 138.93L34.67 139.11Z" fill="url(#paint1_linear_239_4)"/>
<path fill-rule="evenodd" clip-rule="evenodd" d="M81.45 60.69C78.45 64.29 75.55 68.13 72.63 72.06C66.7 80.06 61.09 88.44 55.8 96.83C50.51 105.22 45.89 113.21 41.99 120.83C40.11 124.52 38.4 128.09 36.99 131.41C36.32 133.04 35.68 134.61 35.18 136.09C34.91 136.85 34.7 137.55 34.49 138.24L34.27 139.24V139.49V139.64C34.27 139.64 34.27 139.73 34.35 139.72C34.5472 139.625 34.7239 139.493 34.87 139.33C34.94 139.27 34.92 139.27 34.95 139.24C35.0203 139.157 35.0807 139.067 35.13 138.97V138.92L35.4 138.59L36.61 137.08C37.4 136.08 38.2 135.08 38.95 134.14C40.46 132.23 41.9 130.36 43.31 128.5C46.06 124.86 48.61 121.34 51.06 117.87C55.92 111.03 60.36 104.31 64.58 97.55C68.8 90.79 73.05 83.69 77.14 76.34C81.39 68.68 85.67 60.6 90.14 51.12C87.0625 54.1409 84.161 57.3362 81.45 60.69ZM34.8 139C34.7545 139.023 34.711 139.05 34.67 139.08L34.85 138.89C34.85 138.89 34.82 139 34.8 139Z" fill="white"/>
<path d="M34.85 138.92L34.8 139.02C34.7545 139.043 34.711 139.07 34.67 139.1L34.85 138.92Z" fill="white"/>
<path fill-rule="evenodd" clip-rule="evenodd" d="M159.28 171.17C138.171 178.91 119.761 192.607 106.28 210.6C89.9946 198.987 70.989 191.771 51.1 189.65C59.0219 154.713 79.175 123.76 107.92 102.38C131.373 119.82 149.223 143.728 159.28 171.17Z" fill="url(#paint2_linear_239_4)"/>
<path fill-rule="evenodd" clip-rule="evenodd" d="M140.48 277.32C141.02 279.207 141.5 281.12 141.92 283.06C131.49 289.85 119 296.55 105.17 306.27C102.11 304.123 99.1467 302.123 96.28 300.27C94.0933 298.817 91.9633 297.433 89.89 296.12C87.78 294.76 85.74 293.47 83.76 292.21C56.96 275.21 41.76 265.08 41.76 222.72C41.7583 215.228 42.2964 207.745 43.37 200.33C45.25 200.4 47.12 200.54 48.98 200.73C67.3698 202.525 84.9611 209.137 99.98 219.9C101.49 220.98 102.98 222.1 104.43 223.26C105.88 224.42 107.43 225.67 108.8 226.94C123.954 240.364 134.948 257.846 140.48 277.32Z" fill="url(#paint3_linear_239_4)"/>
<path fill-rule="evenodd" clip-rule="evenodd" d="M174 222.68C174 250.98 165.64 264.88 151.69 276.06C151.18 274.11 150.62 272.18 149.99 270.27C143.38 249.807 131.272 231.556 114.99 217.51C127.103 201.262 143.659 188.867 162.66 181.82C164.42 181.16 166.2 180.56 168.01 180C171.98 193.879 173.997 208.244 174 222.68Z" fill="url(#paint4_linear_239_4)"/>
<path d="M141.92 283.06C141.5 281.12 141.02 279.207 140.48 277.32C136.27 280.12 131.6 282.94 126.48 286.01C120.01 289.91 112.78 294.27 105.16 299.47C101.66 297.07 98.29 294.85 95.08 292.78C93 291.447 91 290.163 89.08 288.93L87.69 288L83.24 285.17C59.36 269.88 47.39 260.17 47.39 222.64C47.3897 215.277 47.9312 207.924 49.01 200.64C47.15 200.45 45.28 200.31 43.4 200.24C41.8 200.16 40.19 200.12 38.57 200.12H37.79C36.732 207.573 36.2006 215.092 36.2 222.62C36.2 268.53 54.3 280.02 81.69 297.42L84.76 299.37C86.85 300.71 89.02 302.1 91.27 303.57C93.52 305.04 95.82 306.57 98.19 308.19C99.43 309.03 100.683 309.897 101.95 310.79L103.21 311.68L105.21 313.05L107.11 311.72L108.43 310.8C116.92 304.8 125.1 299.89 132.31 295.54C136.06 293.28 139.67 291.11 143.1 288.92C142.753 286.973 142.36 285.02 141.92 283.06ZM173.43 178.51C171.63 178.96 169.85 179.45 168.09 180C166.33 180.55 164.5 181.16 162.74 181.82C166.522 195.111 168.44 208.862 168.44 222.68C168.44 247.61 162.04 260.07 150.02 270.27C150.65 272.18 151.21 274.11 151.72 276.06C152.23 278.01 152.72 280.06 153.15 282.06C169.27 269.87 179.63 254.72 179.63 222.68C179.632 207.74 177.545 192.872 173.43 178.51Z" fill="white"/>
<path d="M143.06 289C143.978 294.62 144.439 300.305 144.44 306C135.482 308.797 126.237 310.572 116.88 311.29H116.49C115.66 311.35 114.83 311.42 113.99 311.47C113.15 311.52 112.58 311.55 111.87 311.57L110.37 311.62H109.65C108.79 311.62 107.93 311.62 107.07 311.62L105.17 312.95L103.17 311.58L100.92 311.5C100.51 311.5 100.11 311.5 99.71 311.44C99.5168 311.45 99.3232 311.45 99.13 311.44C97.13 311.34 95.13 311.18 93.13 310.97C92.41 308.517 91.7767 306.027 91.23 303.5C90.68 301.01 90.23 298.5 89.85 295.95C89.5033 293.59 89.2333 291.207 89.04 288.8C88.8 285.847 88.68 282.847 88.68 279.8C88.6484 259.804 94.0844 240.18 104.4 223.05C105.893 224.23 107.35 225.457 108.77 226.73C123.927 240.166 134.917 257.663 140.44 277.15C140.98 279.037 141.46 280.95 141.88 282.89C142.3 284.83 142.693 286.867 143.06 289Z" fill="url(#paint5_linear_239_4)"/>
<path d="M189.62 276C180.535 287.274 168.837 296.161 155.54 301.89C155.317 295.217 154.517 288.575 153.15 282.04C152.73 280.04 152.253 278.04 151.72 276.04C151.21 274.09 150.65 272.16 150.02 270.25C143.41 249.787 131.303 231.536 115.02 217.49C127.133 201.242 143.689 188.847 162.69 181.8C164.45 181.14 166.23 180.54 168.04 179.98C169.85 179.42 171.58 178.98 173.38 178.49C181.717 176.391 190.283 175.333 198.88 175.34H201.65C202.35 177.85 203.01 180.34 203.65 182.9C212.63 220.88 207.77 253.06 189.62 276Z" fill="url(#paint6_linear_239_4)"/>
<path d="M96.28 300.23C95.7934 297.757 95.4 295.273 95.1 292.78C94.5803 288.54 94.3198 284.272 94.32 280C94.294 261.329 99.2995 242.997 108.81 226.93C107.39 225.657 105.933 224.43 104.44 223.25C102.99 222.09 101.5 220.97 99.99 219.89C88.9406 237.991 83.1061 258.793 83.13 280C83.13 281.75 83.13 283.5 83.24 285.24C83.3534 287.573 83.5267 289.907 83.76 292.24C84.02 294.673 84.3534 297.093 84.76 299.5C85.38 303.18 86.18 306.817 87.16 310.41C89.16 310.717 91.16 310.97 93.16 311.17C95.16 311.38 97.16 311.54 99.16 311.64C98.81 310.54 98.48 309.43 98.16 308.32C97.44 305.6 96.81 302.93 96.28 300.23ZM107.07 311.77H106.58H104.03H103.22L105.22 313.14L107.12 311.81C107.98 311.81 108.84 311.81 109.7 311.81C108.807 311.79 107.93 311.777 107.07 311.77Z" fill="white"/>
<path fill-rule="evenodd" clip-rule="evenodd" d="M144.44 306C135.482 308.797 126.237 310.572 116.88 311.29H116.49C115.66 311.35 114.83 311.42 113.99 311.47C113.15 311.52 112.58 311.55 111.87 311.57L110.37 311.62H109.65C108.79 311.62 107.93 311.62 107.07 311.62L105.17 312.95L103.17 311.58L100.92 311.5C100.51 311.5 100.11 311.5 99.71 311.44C99.5168 311.45 99.3232 311.45 99.13 311.44C97.13 311.34 95.13 311.18 93.13 310.97C91.13 310.77 89.13 310.517 87.13 310.21C62.43 306.52 40.94 295.73 26.44 279.38C9.73998 260.65 2.76998 235.72 5.70998 205.37C16.0705 201.991 26.8926 200.24 37.79 200.18H38.57C40.19 200.18 41.8 200.22 43.4 200.3C45.28 200.37 47.15 200.51 49.01 200.7C67.3997 202.495 84.9911 209.107 100.01 219.87C101.52 220.95 103.01 222.07 104.46 223.23C105.91 224.39 107.46 225.64 108.83 226.91C123.987 240.346 134.977 257.843 140.5 277.33C141.04 279.217 141.52 281.13 141.94 283.07C142.36 285.01 142.74 286.98 143.08 288.98C143.992 294.607 144.447 300.299 144.44 306Z" fill="url(#paint7_linear_239_4)"/>
<path d="M106.58 311.78H104.03H103.22L105.22 313.15L107.12 311.82L106.58 311.78Z" fill="white"/>
</g>
<defs>
<linearGradient id="paint0_linear_239_4" x1="34.53" y1="139.23" x2="34.56" y2="139.25" gradientUnits="userSpaceOnUse">
<stop stop-color="#00E1FF"/>
<stop offset="1" stop-color="#0F5F9E"/>
</linearGradient>
<linearGradient id="paint1_linear_239_4" x1="5927.03" y1="37788" x2="53382.8" y2="55992.9" gradientUnits="userSpaceOnUse">
<stop stop-color="#00E1FF"/>
<stop offset="1" stop-color="#0F5F9E"/>
</linearGradient>
<linearGradient id="paint2_linear_239_4" x1="105.19" y1="102.38" x2="105.19" y2="210.6" gradientUnits="userSpaceOnUse">
<stop stop-color="#00E25B"/>
<stop offset="0.05" stop-color="#00D957"/>
<stop offset="0.36" stop-color="#00A944"/>
<stop offset="0.63" stop-color="#008536"/>
<stop offset="0.86" stop-color="#00702D"/>
<stop offset="1" stop-color="#00682A"/>
</linearGradient>
<linearGradient id="paint3_linear_239_4" x1="9242.46" y1="21419.1" x2="9242.46" y2="32646.6" gradientUnits="userSpaceOnUse">
<stop stop-color="#00E25B"/>
<stop offset="0.05" stop-color="#00D957"/>
<stop offset="0.36" stop-color="#00A944"/>
<stop offset="0.63" stop-color="#008536"/>
<stop offset="0.86" stop-color="#00702D"/>
<stop offset="1" stop-color="#00682A"/>
</linearGradient>
<linearGradient id="paint4_linear_239_4" x1="8644.89" y1="17470.8" x2="8644.89" y2="26698.3" gradientUnits="userSpaceOnUse">
<stop stop-color="#00E25B"/>
<stop offset="0.05" stop-color="#00D957"/>
<stop offset="0.36" stop-color="#00A944"/>
<stop offset="0.63" stop-color="#008536"/>
<stop offset="0.86" stop-color="#00702D"/>
<stop offset="1" stop-color="#00682A"/>
</linearGradient>
<linearGradient id="paint5_linear_239_4" x1="136.6" y1="250.15" x2="88.65" y2="307.3" gradientUnits="userSpaceOnUse">
<stop stop-color="#00AF47"/>
<stop offset="0.21" stop-color="#00AA45"/>
<stop offset="0.48" stop-color="#009A3E"/>
<stop offset="0.78" stop-color="#008034"/>
<stop offset="1" stop-color="#00682A"/>
</linearGradient>
<linearGradient id="paint6_linear_239_4" x1="19447.1" y1="23021.4" x2="9081.68" y2="32102" gradientUnits="userSpaceOnUse">
<stop stop-color="#00AF47"/>
<stop offset="0.253992" stop-color="#00AA45"/>
<stop offset="0.493579" stop-color="#009A3E"/>
<stop offset="0.759209" stop-color="#008034"/>
<stop offset="1" stop-color="#00682A"/>
</linearGradient>
<linearGradient id="paint7_linear_239_4" x1="-0.0600177" y1="215.36" x2="147.59" y2="300.61" gradientUnits="userSpaceOnUse">
<stop stop-color="#00EA5F"/>
<stop offset="0.2" stop-color="#00E55D"/>
<stop offset="0.45" stop-color="#00D556"/>
<stop offset="0.73" stop-color="#00BB4C"/>
<stop offset="1" stop-color="#009B3F"/>
</linearGradient>
<clipPath id="clip0_239_4">
<rect width="208.04" height="313.11" fill="white"/>
</clipPath>
</defs>
</svg>
